REM DIRINDEX 1\5,1\2\6,1\2\7,1\3\8,1\3\9,1\4\10,1\4\11,1\4\12
REM DIRNAME folder01,folder02,folder03,folder04,folder05,folder06,folder07,folder08,folder09,folder10,folder11,folder12
TITLE ""
FILE "EJE_DB3000_5th_3B_17.mp3" MP3
  TRACK 01 AUDIO
    TITLE "0:"
    INDEX 01 00:00:00
  TRACK 02 AUDIO
    TITLE "10:cjc026_08826"
    INDEX 01 00:00:05
  TRACK 03 AUDIO
    TITLE "0:"
    INDEX 01 00:01:01
  TRACK 04 AUDIO
    TITLE "11:cjc026_08827"
    INDEX 01 00:01:26
  TRACK 05 AUDIO
    TITLE "0:"
    INDEX 01 00:02:30
  TRACK 06 AUDIO
    TITLE "12:cjc026_08828"
    INDEX 01 00:02:55
  TRACK 07 AUDIO
    TITLE "0:"
    INDEX 01 00:03:53
  TRACK 08 AUDIO
    TITLE "10:cjc026_08829"
    INDEX 01 00:04:01
  TRACK 09 AUDIO
    TITLE "0:"
    INDEX 01 00:05:01
  TRACK 10 AUDIO
    TITLE "11:cjc026_08830"
    INDEX 01 00:05:28
  TRACK 11 AUDIO
    TITLE "0:"
    INDEX 01 00:06:43
  TRACK 12 AUDIO
    TITLE "12:cjc026_08831"
    INDEX 01 00:06:69
  TRACK 13 AUDIO
    TITLE "0:"
    INDEX 01 00:07:68
  TRACK 14 AUDIO
    TITLE "10:cjc026_08832"
    INDEX 01 00:08:19
  TRACK 15 AUDIO
    TITLE "0:"
    INDEX 01 00:09:22
  TRACK 16 AUDIO
    TITLE "11:cjc026_08833"
    INDEX 01 00:09:47
  TRACK 17 AUDIO
    TITLE "0:"
    INDEX 01 00:11:01
  TRACK 18 AUDIO
    TITLE "12:cjc026_08834"
    INDEX 01 00:11:27
  TRACK 19 AUDIO
    TITLE "0:"
    INDEX 01 00:12:30
  TRACK 20 AUDIO
    TITLE "10:cjc026_08835"
    INDEX 01 00:12:56
  TRACK 21 AUDIO
    TITLE "0:"
    INDEX 01 00:13:55
  TRACK 22 AUDIO
    TITLE "11:cjc026_08836"
    INDEX 01 00:14:06
  TRACK 23 AUDIO
    TITLE "0:"
    INDEX 01 00:15:52
  TRACK 24 AUDIO
    TITLE "12:cjc026_08837"
    INDEX 01 00:16:04
  TRACK 25 AUDIO
    TITLE "0:"
    INDEX 01 00:17:02
  TRACK 26 AUDIO
    TITLE "10:cjc026_08838"
    INDEX 01 00:17:29
  TRACK 27 AUDIO
    TITLE "0:"
    INDEX 01 00:18:29
  TRACK 28 AUDIO
    TITLE "11:cjc026_08839"
    INDEX 01 00:18:56
  TRACK 29 AUDIO
    TITLE "0:"
    INDEX 01 00:19:65
  TRACK 30 AUDIO
    TITLE "12:cjc026_08840"
    INDEX 01 00:20:18
  TRACK 31 AUDIO
    TITLE "0:"
    INDEX 01 00:21:17
  TRACK 32 AUDIO
    TITLE "10:cjc026_08841"
    INDEX 01 00:21:43
  TRACK 33 AUDIO
    TITLE "0:"
    INDEX 01 00:22:36
  TRACK 34 AUDIO
    TITLE "11:cjc026_08842"
    INDEX 01 00:22:64
  TRACK 35 AUDIO
    TITLE "0:"
    INDEX 01 00:24:06
  TRACK 36 AUDIO
    TITLE "12:cjc026_08843"
    INDEX 01 00:24:35
  TRACK 37 AUDIO
    TITLE "0:"
    INDEX 01 00:25:27
  TRACK 38 AUDIO
    TITLE "10:cjc026_08844"
    INDEX 01 00:25:54
  TRACK 39 AUDIO
    TITLE "0:"
    INDEX 01 00:26:60
  TRACK 40 AUDIO
    TITLE "11:cjc026_08845"
    INDEX 01 00:27:10
  TRACK 41 AUDIO
    TITLE "0:"
    INDEX 01 00:28:33
  TRACK 42 AUDIO
    TITLE "12:cjc026_08846"
    INDEX 01 00:28:60
  TRACK 43 AUDIO
    TITLE "0:"
    INDEX 01 00:29:66
  TRACK 44 AUDIO
    TITLE "10:cjc026_08847"
    INDEX 01 00:30:16
  TRACK 45 AUDIO
    TITLE "0:"
    INDEX 01 00:31:18
  TRACK 46 AUDIO
    TITLE "11:cjc026_08848"
    INDEX 01 00:31:41
  TRACK 47 AUDIO
    TITLE "0:"
    INDEX 01 00:32:58
  TRACK 48 AUDIO
    TITLE "12:cjc026_08849"
    INDEX 01 00:33:09
  TRACK 49 AUDIO
    TITLE "0:"
    INDEX 01 00:34:10
  TRACK 50 AUDIO
    TITLE "10:cjc026_08850"
    INDEX 01 00:34:36
  TRACK 51 AUDIO
    TITLE "0:"
    INDEX 01 00:35:43
  TRACK 52 AUDIO
    TITLE "11:cjc026_08851"
    INDEX 01 00:35:66
  TRACK 53 AUDIO
    TITLE "0:"
    INDEX 01 00:37:10
  TRACK 54 AUDIO
    TITLE "12:cjc026_08852"
    INDEX 01 00:37:34
  TRACK 55 AUDIO
    TITLE "0:"
    INDEX 01 00:38:41
  TRACK 56 AUDIO
    TITLE "10:cjc026_08853"
    INDEX 01 00:38:65
  TRACK 57 AUDIO
    TITLE "0:"
    INDEX 01 00:39:70
  TRACK 58 AUDIO
    TITLE "11:cjc026_08854"
    INDEX 01 00:40:21
  TRACK 59 AUDIO
    TITLE "0:"
    INDEX 01 00:41:44
  TRACK 60 AUDIO
    TITLE "12:cjc026_08855"
    INDEX 01 00:41:69
  TRACK 61 AUDIO
    TITLE "0:"
    INDEX 01 00:42:72
  TRACK 62 AUDIO
    TITLE "10:cjc026_08856"
    INDEX 01 00:43:25
  TRACK 63 AUDIO
    TITLE "0:"
    INDEX 01 00:44:32
  TRACK 64 AUDIO
    TITLE "11:cjc026_08857"
    INDEX 01 00:44:58
  TRACK 65 AUDIO
    TITLE "0:"
    INDEX 01 00:46:00
  TRACK 66 AUDIO
    TITLE "12:cjc026_08858"
    INDEX 01 00:46:25
  TRACK 67 AUDIO
    TITLE "0:"
    INDEX 01 00:47:32
  TRACK 68 AUDIO
    TITLE "10:cjc026_08859"
    INDEX 01 00:47:58
  TRACK 69 AUDIO
    TITLE "0:"
    INDEX 01 00:48:65
  TRACK 70 AUDIO
    TITLE "11:cjc026_08860"
    INDEX 01 00:49:16
  TRACK 71 AUDIO
    TITLE "0:"
    INDEX 01 00:50:21
  TRACK 72 AUDIO
    TITLE "12:cjc026_08861"
    INDEX 01 00:50:46
  TRACK 73 AUDIO
    TITLE "0:"
    INDEX 01 00:51:52
